<?xml version="1.0" encoding="utf-8"?>
<!-- Generator: Adobe Illustrator 17.1.0, SVG Export Plug-In . SVG Version: 6.00 Build 0)  -->
<!DOCTYPE svg PUBLIC "-//W3C//DTD SVG 1.1//EN" "http://www.w3.org/Graphics/SVG/1.1/DTD/svg11.dtd">
<svg version="1.1" id="Layer_1" xmlns="http://www.w3.org/2000/svg" xmlns:xlink="http://www.w3.org/1999/xlink" x="0px" y="0px"
	 viewBox="0 0 1000 401.8" enable-background="new 0 0 1000 401.8" xml:space="preserve">
<g>
	<path fill="none" d="M534.7,243.7c-9.7,0-17.7,7.9-17.7,17.7c0,9.6,8,17.6,17.7,17.6c9.8,0,17.6-8,17.6-17.6
		C552.3,251.6,544.5,243.7,534.7,243.7z"/>
	<g>
		<path fill="#0046B5" d="M275.5,171.1c-3.6-10.4-9.4-19.8-16.7-27.7c-0.3-0.3-0.5-0.7-0.9-1H235h-10.7h-10.2h-19.7H185h-11.3h-7.5
			v9.1v20.1v5.4v13.4v21v20.4v1.7v23.9v12.9c1.1,0.5,2.3,1,3.5,1.5c7.6,3.1,15.8,5.1,24.4,5.6v-57.3h50.8v-25.5v-3.1h-46.1H194
			v-20.5H275.5z"/>
		<polygon fill="#0046B5" points="313.9,216.2 337.2,216.2 337.2,173.6 374.9,173.6 374.9,150.3 337.2,150.3 337.2,131.3 
			374.9,131.3 374.9,108.1 313.9,108.1 		"/>
		<path fill="#0046B5" d="M460.8,141.9c0-18.8-14-33.8-33.4-33.8H392v108.2h23.4V174h2.9l24.3,42.2h26.6l-25.7-44.8
			C455.3,165.2,460.8,155.3,460.8,141.9z M427.4,152.6h-12v-21.3h12c6.9,0,10,5.6,10,10.6C437.4,147.1,434.3,152.6,427.4,152.6z"/>
		<polygon fill="#0046B5" points="480.2,216.2 541,216.2 541,192.9 503.4,192.9 503.4,173.6 541,173.6 541,150.3 503.4,150.3 
			503.4,131.3 541,131.3 541,108.1 480.2,108.1 		"/>
		<polygon fill="#0046B5" points="559.3,216.2 620.1,216.2 620.1,192.9 582.5,192.9 582.5,173.6 620.1,173.6 620.1,150.3 
			582.5,150.3 582.5,131.3 620.1,131.3 620.1,108.1 559.3,108.1 		"/>
		<path fill="#0046B5" d="M674.6,108.1h-36v108.2h36c30.1,0,54.4-24.4,54.4-54.1S704.7,108.1,674.6,108.1z M674.6,192.9h-12.7v-61.6
			h13.6c18.1,0,30.2,12.6,30.2,30.8C705.7,180.4,692.7,192.9,674.6,192.9z"/>
		<path fill="#0046B5" d="M798.7,106.9c-30.7,0-55.2,24.6-55.2,55.2c0,30.7,24.6,55.2,55.2,55.2c30.5,0,55.2-24.6,55.2-55.2
			C854,131.5,829.2,106.9,798.7,106.9z M798.7,194c-17.5,0-32-14.5-32-31.8c0-17.6,14.5-32,32-32c17.8,0,31.8,14.3,31.8,32
			C830.5,179.5,816.5,194,798.7,194z"/>
		<path fill="#0046B5" d="M953.6,108.1L928,178l-25.6-70h-29.1v108.2h23.9v-61.7l22,61.7h17.5c20.8-55.7,22.7-65.4,23.3-69.4v69.4
			h23.1V108.1H953.6z"/>
	</g>
	<g>
		<path fill="#C40513" d="M278.6,143.4c-7.9-10.2-18-18.8-29.5-24.9c10-1.7,15.7-8.9,16.7-15.2c1.8-10.9-1.6-18.4-11.2-23.1
			c-8.6-4.2-19.4-1.1-24.6,6c-4.7,6.5-6.1,16.2,0.3,24.7c-6.1-1.7-12.5-2.9-19-3.3V74.4c8.1-2.4,14.8-6.7,19.3-13.9
			c4.6-7.3,6-15.2,4-23.4c-3.3-13.6-14.5-22.7-27.6-23.7c-13.8-1-27.1,6.9-31.1,19.8c-6.5,20.8,2.8,34,22,41.6v32.7
			c-7,0.5-13.9,1.8-20.4,3.8c5.9-7.9,5.4-16.7,0.5-24.1c-4.3-6.4-13.7-10.8-23.5-7.2c-8,2.9-13.2,10.4-13.1,19.5
			c0.1,5,1.9,9.4,5.3,13.1c3.6,4,7.9,5.9,12.8,6.2c-5.7,3.1-11,6.8-15.9,11.1c-7.8-7.6-15.7-15.4-20.3-19.9
			c9.2-15.6,4.1-31.9-6.6-40.4c-12.7-10.1-28.5-8.6-39.2,0.4c-12,10.1-15,28.3-4.7,42.1c6.7,9,22.9,18.1,41,7.6
			c4.6,4.6,12.4,12.4,20,20.1c-4.4,5.1-8.3,10.7-11.6,16.7c-0.5-3.5-1.8-6.8-4.3-9.8c-3.8-4.8-8.9-7.1-14.9-7.8
			c-7.4-0.8-16.7,5.4-19.5,12.6c-3.4,8.9-1,18.1,6.2,23.8c3.4,2.6,7.3,4.2,11.5,4.3c5.3,0.2,9.6-1.6,13.3-4.5
			c-1.8,6.1-2.9,12.5-3.4,19c-14.6,0.1-31.8-0.1-33-0.3c-6.4-19.6-22.7-25.8-36.6-23c-14.3,2.9-23.4,15-24.3,27.5
			c-1.2,17.5,10,29.4,24.1,32.8c6.8,1.7,13.6,0.6,19.9-2.5c8.8-4.3,14.1-11.5,16.7-20.9h33.1c0.5,6.9,1.8,13.7,3.7,20.2
			c-8.1-6-17-4.9-23.1-0.9c-8,5.3-11.4,15.2-7.7,24.4c3.7,9.2,12.6,13.9,23,12.3c8.3-1.3,13.6-7.3,15.4-17.8
			c3.3,5.9,7,11.3,11.4,16.3c-1.1,1.1-1.8,1.8-2,1.9c-7.4,7.5-14.8,15-22.2,22.4c-1.2,1.2-2.4,1.2-3.8,0.5c-7-3.8-14.3-4.6-22-2.8
			c-6.3,1.5-11.6,4.7-15.7,9.6c-6,7.1-8.7,15.2-7.2,24.7c1.4,8.3,5.1,15.1,11.9,20.2c6.7,5,14.1,6.8,22.4,5.7c1.8-0.3,3.7-0.4,5.5-1
			c8.2-2.9,14.3-8.1,18.2-15.9c3.1-6.2,4-12.8,2.4-19.8c-0.8-3.7-2.4-6.9-4-10.2c5-5,15.9-15.9,25.9-25.9
			c5.1,4.4,10.8,8.3,16.8,11.6c0,0,0,0,0,0c-3.5,0.5-6.8,1.7-9.8,4.2c-4.6,3.9-7.2,8.8-7.5,14.9c-0.4,8.4,4,16.1,12.7,19.7
			c8.5,3.5,18.2,0.7,23.5-6.5c2.9-4,4.5-8.4,4.2-13.4c-0.3-4.3-1.7-8-4.2-11.3c6,1.8,12.3,2.9,18.7,3.4c0,0,0,0,0,0v33.1
			c-18.2,5.6-25.6,20.5-23.7,34.2c2.2,15.8,14.2,25.2,26.7,26.6c18.1,1.9,30.5-9.9,33.9-23.9c1.6-6.8,0.8-13.5-2.3-19.9
			c-4.3-8.9-11.6-14.2-21-17v-33.1c7-0.4,13.7-1.7,20.2-3.7c-6,8.2-4.9,17.1-0.9,23.2c5.5,8.2,15,11.2,24,7.9
			c9.6-3.5,13.4-12.1,13.2-19.9c-0.2-4.7-2-9.2-5.4-12.7c-3.5-3.6-7.5-5.6-12.1-6.3c28.6-16,48-46.6,48-81.8
			c0-16.8-4.4-32.5-12.1-46.1C284,150.7,281.4,146.9,278.6,143.4z M241.1,276.1c-2.6,1.2-5.3,2.4-8.1,3.4c-8.8,3.3-18.4,5-28.3,5
			c-2.1,0-4.1-0.1-6.1-0.3c-10.3-0.7-20.1-3.3-29.1-7.5c-6.9-3.2-13.3-7.3-19-12.2c-3.4-2.9-6.6-6.1-9.5-9.5c-2.5-2.9-4.8-6-6.9-9.3
			c-0.4-0.6-0.8-1.2-1.2-1.9c-1.2-2.1-2.4-4.3-3.5-6.5c-1.3-2.5-2.4-5.3-3.4-8c-2.5-6.8-4.1-14.1-4.7-21.6c-0.2-2.2-0.3-4.6-0.3-6.8
			c0-2.3,0.1-4.6,0.3-6.8c0.5-7.1,2-14,4.2-20.4c1-2.8,2-5.4,3.3-8c3.1-6.8,7.2-13.1,12-18.7c3-3.5,6.3-6.8,9.9-9.8
			c5.3-4.5,11.1-8.3,17.4-11.3c2.5-1.2,5.1-2.3,7.8-3.3c6.9-2.5,14.2-4.2,21.8-4.7c2.2-0.2,4.5-0.3,6.8-0.3c2.2,0,4.4,0.1,6.6,0.3
			c7.2,0.5,14.1,2,20.7,4.3c2.7,0.9,5.4,2,7.9,3.2c9.5,4.4,18.1,10.6,25.3,18.2c8.1,8.5,14.4,18.6,18.3,29.9
			c3,8.6,4.7,17.9,4.7,27.6C288.2,234,269,262.5,241.1,276.1z"/>
		<rect x="313.9" y="255.8" fill="#C40513" width="116.9" height="8.1"/>
		<rect x="859" y="255.8" fill="#C40513" width="124.9" height="8.1"/>
		<path fill="#C40513" d="M471.3,243.7c4.1,0.1,8.2,1.7,11.7,4.5l7.8-10.1c-1.1-1.1-8.1-7.2-19.7-7.2c-16.9,0-30.5,13.6-30.5,30.5
			s13.6,30.5,30.5,30.5c11.5,0,18.6-6.2,19.7-7.2l-7.8-10.2c-3.4,2.8-7.7,4.5-11.7,4.5c-10.1-0.1-17.7-8-17.7-17.6
			C453.5,251.5,461.3,244.1,471.3,243.7z"/>
		<path fill="#C40513" d="M534.7,230.8c-16.9,0-30.5,13.6-30.5,30.5s13.6,30.5,30.5,30.5c16.9,0,30.5-13.6,30.5-30.5
			S551.6,230.8,534.7,230.8z M534.7,278.9c-9.7,0-17.7-8-17.7-17.6c0-9.7,8-17.7,17.7-17.7c9.8,0,17.6,7.9,17.6,17.7
			C552.3,270.9,544.5,278.9,534.7,278.9z"/>
		<polygon fill="#C40513" points="616.3,266 592.4,231.4 580.5,231.4 580.5,291.2 592.8,291.2 592.8,256.6 616.8,291.2 628.6,291.2 
			628.6,231.5 616.3,231.5 		"/>
		<polygon fill="#C40513" points="679.5,266 655.6,231.4 643.7,231.4 643.7,291.2 656,291.2 656,256.6 680,291.2 691.7,291.2 
			691.7,231.5 679.5,231.5 		"/>
		<polygon fill="#C40513" points="706.8,291.2 740.5,291.2 740.5,278.3 719.7,278.3 719.7,267.6 740.5,267.6 740.5,254.8 
			719.7,254.8 719.7,244.3 740.5,244.3 740.5,231.4 706.8,231.4 		"/>
		<path fill="#C40513" d="M785.9,243.7c4.1,0.1,8.2,1.7,11.7,4.5l7.8-10.1c-1.1-1.1-8.1-7.2-19.7-7.2c-16.9,0-30.5,13.6-30.5,30.5
			s13.6,30.5,30.5,30.5c11.5,0,18.6-6.2,19.7-7.2l-7.8-10.2c-3.4,2.8-7.7,4.5-11.7,4.5c-10.1-0.1-17.7-8-17.7-17.6
			C768.1,251.5,775.9,244.1,785.9,243.7z"/>
		<polygon fill="#C40513" points="818.4,244.3 831.2,244.3 831.2,291.2 844.1,291.2 844.1,244.2 857.1,244.2 857.1,231.4 
			818.4,231.4 		"/>
	</g>
</g>
</svg>
